<svg width="32" height="32" viewBox="0 0 160 160" fill="none" xmlns="http://www.w3.org/2000/svg"><circle cx="80" cy="80" r="80" fill="#000"/><path d="M70.862 97.495h-8.76l5.479-33.88h8.76l-5.479 33.88zm31.758-33.053C100.892 63.757 98.151 63 94.762 63c-8.65 0-14.743 4.613-14.78 11.209-.072 4.866 4.362 7.57 7.677 9.192 3.39 1.658 4.542 2.74 4.542 4.218-.034 2.27-2.739 3.316-5.261 3.316-3.498 0-5.372-.54-8.22-1.802l-1.153-.542-1.226 7.606c2.055.936 5.84 1.767 9.77 1.803 9.192 0 15.177-4.542 15.248-11.57.035-3.858-2.306-6.813-7.354-9.228-3.064-1.55-4.94-2.595-4.94-4.181.035-1.442 1.587-2.92 5.046-2.92 2.847-.072 4.94.613 6.525 1.298l.793.36 1.191-7.317zm11.645 21.05c.721-1.946 3.498-9.48 3.498-9.48-.037.073.72-1.982 1.152-3.243l.612 2.92s1.659 8.11 2.02 9.803h-7.282zm10.814-21.878h-6.777c-2.089 0-3.677.613-4.578 2.811l-13.013 31.07h9.192l1.839-5.083h11.248c.251 1.19 1.045 5.083 1.045 5.083h8.111l-7.067-33.88zm-70.293 0l-8.58 23.104-.937-4.686c-1.586-5.406-6.56-11.28-12.112-14.201l7.859 29.628h9.264l13.77-33.845h-9.264z" fill="#fff"/><path d="M38.239 63.614H24.144L24 64.3c10.995 2.811 18.276 9.589 21.268 17.735l-3.064-15.572c-.504-2.164-2.054-2.776-3.965-2.848z" fill="#fff"/></svg>